<svg xmlns="http://www.w3.org/2000/svg" xmlns:xlink="http://www.w3.org/1999/xlink" width="360" zoomAndPan="magnify" viewBox="0 0 270 89.999999" height="120" preserveAspectRatio="xMidYMid meet" version="1.0"><defs><g/><clipPath id="369d96156a"><path d="M 23 33.1875 L 76.125 33.1875 L 76.125 84.9375 L 23 84.9375 Z M 23 33.1875 " clip-rule="nonzero"/></clipPath></defs><path fill="#e60124" d="M 15.394531 44.847656 L 15.394531 77.203125 C 15.394531 84.273438 21.121094 90 28.191406 90 L 70.84375 90 C 77.914062 90 83.640625 84.273438 83.640625 77.203125 L 83.640625 44.847656 L 89.15625 50.363281 C 90.820312 52.023438 93.523438 52.023438 95.1875 50.363281 C 96.851562 48.699219 96.851562 45.992188 95.1875 44.332031 L 52.535156 1.675781 C 50.871094 0.0078125 48.164062 0.0078125 46.5 1.675781 L 3.847656 44.332031 C 2.183594 45.992188 2.183594 48.699219 3.847656 50.363281 C 5.511719 52.023438 8.214844 52.023438 9.878906 50.363281 Z M 15.394531 44.847656 " fill-opacity="1" fill-rule="evenodd"/><path stroke-linecap="round" transform="matrix(0, -0.75, 0.75, 0, 21.226143, 33.186354)" fill="none" stroke-linejoin="miter" d="M 6.998472 7.00056 L 28.79014 7.00056 " stroke="#e60124" stroke-width="14" stroke-opacity="1" stroke-miterlimit="4"/><g clip-path="url(#369d96156a)"><path fill="#fff972" d="M 63.359375 51.492188 C 63.1875 51.320312 62.964844 51.234375 62.738281 51.234375 C 62.515625 51.234375 62.292969 51.320312 62.121094 51.492188 L 60.257812 53.351562 L 54.042969 47.140625 L 55.5625 45.621094 C 56.574219 44.609375 57.023438 43.21875 56.792969 41.808594 C 56.566406 40.398438 55.703125 39.222656 54.421875 38.582031 L 47.445312 35.097656 L 47.496094 35.046875 L 59.957031 37.539062 C 61.492188 37.847656 62.894531 38.597656 63.996094 39.707031 L 68.953125 44.660156 L 67.085938 46.523438 C 66.921875 46.6875 66.832031 46.910156 66.832031 47.144531 C 66.832031 47.375 66.921875 47.601562 67.085938 47.765625 L 68.949219 49.628906 C 69.160156 49.835938 69.457031 49.925781 69.746094 49.867188 L 71.929688 49.433594 C 72.222656 49.371094 72.515625 49.464844 72.726562 49.671875 L 73.925781 50.871094 L 66.46875 58.328125 L 65.269531 57.128906 C 65.058594 56.917969 64.96875 56.625 65.027344 56.335938 L 65.46875 54.148438 C 65.523438 53.859375 65.433594 53.5625 65.222656 53.355469 Z M 30.746094 80.375 C 29.726562 81.402344 28.050781 81.402344 27.019531 80.378906 C 25.992188 79.347656 25.992188 77.671875 27.019531 76.648438 L 54.039062 49.625 L 57.769531 53.355469 Z M 64.34375 68.859375 C 66.503906 68.605469 68.621094 69.335938 70.160156 70.867188 C 71.953125 72.664062 72.621094 75.265625 71.976562 77.65625 L 68.101562 73.78125 C 67.933594 73.613281 67.710938 73.523438 67.476562 73.523438 L 63.75 73.523438 C 63.265625 73.523438 62.871094 73.917969 62.871094 74.402344 L 62.871094 78.125 C 62.871094 78.359375 62.964844 78.585938 63.128906 78.75 L 67.003906 82.625 C 64.617188 83.265625 62.015625 82.605469 60.214844 80.808594 C 58.6875 79.273438 57.957031 77.152344 58.210938 74.996094 C 58.375 73.625 57.917969 72.289062 56.964844 71.347656 L 49.617188 63.996094 L 53.347656 60.265625 L 60.691406 67.613281 C 61.640625 68.574219 62.976562 69.027344 64.34375 68.859375 Z M 33.835938 50.035156 C 33.652344 50.035156 33.464844 50.042969 33.28125 50.066406 C 31.117188 50.320312 29 49.585938 27.464844 48.058594 C 25.671875 46.261719 25.003906 43.660156 25.652344 41.269531 L 29.527344 45.144531 C 29.691406 45.3125 29.917969 45.402344 30.152344 45.402344 L 33.875 45.402344 C 34.359375 45.402344 34.753906 45.007812 34.753906 44.523438 L 34.753906 40.800781 C 34.753906 40.566406 34.660156 40.339844 34.496094 40.175781 L 30.621094 36.300781 C 33.007812 35.65625 35.613281 36.316406 37.40625 38.117188 C 38.9375 39.652344 39.667969 41.773438 39.417969 43.925781 C 39.25 45.300781 39.703125 46.636719 40.660156 47.578125 L 47.128906 54.050781 L 43.398438 57.78125 L 36.933594 51.3125 C 36.113281 50.484375 35.007812 50.035156 33.835938 50.035156 Z M 64.023438 58.371094 L 65.847656 60.191406 C 66.019531 60.363281 66.242188 60.449219 66.46875 60.449219 C 66.691406 60.449219 66.914062 60.363281 67.085938 60.191406 L 75.789062 51.492188 C 76.132812 51.148438 76.132812 50.59375 75.789062 50.25 L 73.96875 48.429688 C 73.34375 47.800781 72.457031 47.535156 71.585938 47.707031 L 69.863281 48.054688 L 68.949219 47.144531 L 70.816406 45.28125 C 70.984375 45.113281 71.074219 44.886719 71.074219 44.660156 C 71.074219 44.425781 70.984375 44.203125 70.816406 44.039062 L 65.242188 38.460938 C 63.886719 37.105469 62.179688 36.195312 60.304688 35.816406 L 47.378906 33.230469 C 47.089844 33.171875 46.789062 33.265625 46.585938 33.472656 L 45.34375 34.714844 C 45.144531 34.914062 45.050781 35.199219 45.09375 35.476562 C 45.140625 35.757812 45.320312 35.996094 45.570312 36.121094 L 53.636719 40.15625 C 54.402344 40.539062 54.921875 41.246094 55.058594 42.089844 C 55.195312 42.9375 54.929688 43.773438 54.320312 44.378906 L 52.175781 46.523438 C 52.011719 46.6875 51.917969 46.910156 51.917969 47.144531 C 51.917969 47.375 52.011719 47.601562 52.175781 47.765625 L 52.796875 48.382812 L 48.375 52.808594 L 41.898438 46.332031 C 41.328125 45.769531 41.058594 44.972656 41.160156 44.132812 C 41.476562 41.4375 40.5625 38.792969 38.652344 36.875 C 36.019531 34.242188 32 33.554688 28.652344 35.164062 C 28.398438 35.289062 28.214844 35.527344 28.167969 35.808594 C 28.117188 36.089844 28.210938 36.375 28.410156 36.578125 L 32.996094 41.160156 L 32.996094 43.644531 L 30.511719 43.644531 L 25.929688 39.058594 C 25.726562 38.859375 25.441406 38.773438 25.160156 38.816406 C 24.878906 38.863281 24.636719 39.046875 24.515625 39.304688 C 22.90625 42.652344 23.589844 46.671875 26.222656 49.300781 C 28.144531 51.210938 30.789062 52.128906 33.492188 51.8125 C 34.320312 51.707031 35.121094 51.980469 35.6875 52.554688 L 42.15625 59.023438 L 25.773438 75.40625 C 24.066406 77.113281 24.066406 79.902344 25.777344 81.621094 C 26.636719 82.476562 27.761719 82.902344 28.886719 82.902344 C 30.011719 82.902344 31.140625 82.472656 31.992188 81.621094 L 48.375 65.238281 L 55.726562 72.59375 C 56.296875 73.15625 56.566406 73.953125 56.464844 74.792969 C 56.148438 77.488281 57.0625 80.128906 58.972656 82.050781 C 60.65625 83.734375 62.90625 84.621094 65.183594 84.621094 C 66.46875 84.621094 67.765625 84.339844 68.976562 83.761719 C 69.230469 83.636719 69.410156 83.398438 69.457031 83.117188 C 69.507812 82.835938 69.414062 82.550781 69.214844 82.347656 L 64.628906 77.765625 L 64.628906 75.28125 L 67.113281 75.28125 L 71.695312 79.863281 C 71.898438 80.0625 72.1875 80.152344 72.464844 80.109375 C 72.746094 80.0625 72.988281 79.878906 73.109375 79.621094 C 74.722656 76.273438 74.035156 72.253906 71.402344 69.621094 C 69.484375 67.714844 66.835938 66.796875 64.136719 67.113281 C 63.304688 67.214844 62.507812 66.945312 61.9375 66.371094 L 54.589844 59.023438 L 59.015625 54.597656 L 59.632812 55.21875 C 59.976562 55.5625 60.53125 55.5625 60.875 55.21875 L 62.738281 53.355469 L 63.652344 54.265625 L 63.304688 55.988281 C 63.128906 56.855469 63.402344 57.746094 64.023438 58.371094 " fill-opacity="1" fill-rule="nonzero"/></g><path stroke-linecap="butt" transform="matrix(0.75, 0, 0, 0.75, 100.556612, 49.630005)" fill="none" stroke-linejoin="miter" d="M 74.898479 -1.069173 C 75.330771 -1.069173 76.013063 -1.022298 76.940146 -0.938965 C 77.877646 -0.850423 78.716188 -0.808757 79.455771 -0.808757 C 80.27348 -0.808757 81.153688 -0.850423 82.106813 -0.938965 C 83.065146 -1.022298 83.737021 -1.069173 84.11723 -1.069173 C 84.528688 -1.069173 84.856813 -0.944173 85.096397 -0.70459 C 85.341188 -0.465007 85.46098 -0.14209 85.46098 0.269368 C 85.46098 0.649577 85.346397 1.003743 85.11723 1.342285 C 84.934938 1.623535 84.794313 1.930827 84.695355 2.274577 C 84.596397 2.618327 84.544313 3.149577 84.544313 3.863119 L 84.544313 19.436036 C 84.544313 20.128744 84.643272 20.561036 84.846397 20.743328 C 85.049522 20.915203 85.533897 21.003744 86.30473 21.003744 C 86.96098 21.003744 87.46098 20.946453 87.80473 20.837078 C 88.153688 20.717286 88.481813 20.545411 88.789105 20.311036 C 88.99223 20.165203 89.190147 20.055828 89.377647 19.993328 C 89.570355 19.925619 89.80473 19.894369 90.08598 19.894369 C 90.497439 19.894369 90.841189 20.019369 91.122439 20.274578 C 91.403689 20.529786 91.544314 20.821453 91.544314 21.154786 C 91.544314 21.311036 91.502647 21.545411 91.42973 21.86312 C 91.356814 22.180828 91.289105 22.441245 91.231814 22.649578 C 90.80473 24.180828 90.52348 25.64437 90.393272 27.045411 C 90.341189 27.816245 90.237022 28.378745 90.065147 28.73812 C 89.903688 29.092287 89.513063 29.26937 88.89848 29.26937 C 88.747438 29.26937 88.106813 29.222495 86.966188 29.128745 C 85.830772 29.045412 84.018272 28.998537 81.518271 28.998537 C 79.987021 28.998537 77.794313 29.092287 74.934938 29.26937 C 74.502646 29.26937 74.153688 29.14437 73.888063 28.889162 C 73.622438 28.633953 73.487021 28.30062 73.487021 27.889161 C 73.487021 27.534995 73.601604 27.191245 73.830771 26.86312 C 74.033896 26.58187 74.179729 26.279786 74.278688 25.962078 C 74.388063 25.639161 74.440146 25.186036 74.440146 24.602703 L 74.440146 3.331869 C 74.440146 2.847494 74.393271 2.48291 74.309938 2.238118 C 74.221396 1.993327 74.085979 1.722493 73.908896 1.415202 C 73.752646 1.212077 73.643271 1.034993 73.580771 0.883952 C 73.518271 0.727702 73.487021 0.524577 73.487021 0.269368 C 73.487021 -0.14209 73.612021 -0.465007 73.867229 -0.70459 C 74.122438 -0.944173 74.466188 -1.069173 74.898479 -1.069173 Z M 93.799522 -1.069173 C 94.028689 -1.069173 94.612022 -1.022298 95.55473 -0.938965 C 96.502647 -0.850423 97.408897 -0.808757 98.273481 -0.808757 C 99.184939 -0.808757 100.184939 -0.850423 101.268272 -0.938965 C 102.362022 -1.022298 103.018273 -1.069173 103.242231 -1.069173 C 103.679731 -1.069173 104.023481 -0.944173 104.278689 -0.70459 C 104.533898 -0.465007 104.658898 -0.14209 104.658898 0.269368 C 104.658898 0.498535 104.638064 0.686035 104.585981 0.82666 C 104.539106 0.967285 104.445356 1.123535 104.315148 1.305827 C 104.132856 1.587077 103.987023 1.894368 103.877648 2.238118 C 103.763064 2.581868 103.710981 3.10791 103.710981 3.82666 C 103.710981 14.180827 103.721398 19.409994 103.747439 19.508953 C 103.846398 20.071453 104.080773 20.498536 104.445356 20.800619 C 104.820356 21.092286 105.273481 21.238119 105.809939 21.238119 C 106.497439 21.238119 107.044314 21.055828 107.455773 20.686036 C 107.867231 20.311036 108.070356 19.816244 108.070356 19.201661 C 108.070356 19.024578 108.054731 18.628744 108.023481 18.003744 C 107.997439 17.378744 107.987023 16.284994 107.987023 14.727702 L 107.987023 3.248535 C 107.987023 2.816244 107.945356 2.477702 107.856814 2.217285 C 107.768273 1.962077 107.632856 1.706868 107.455773 1.45166 C 107.200564 1.04541 107.070356 0.649577 107.070356 0.269368 C 107.070356 -0.168132 107.190148 -0.496257 107.434939 -0.720215 C 107.679731 -0.95459 108.018273 -1.069173 108.455773 -1.069173 C 108.856814 -1.069173 109.205773 -1.053548 109.49744 -1.032715 C 109.794315 -1.006673 110.205773 -0.959798 110.742231 -0.902507 C 111.27869 -0.840007 111.789106 -0.808757 112.273481 -0.808757 C 112.710981 -0.808757 113.325565 -0.850423 114.112023 -0.938965 C 114.90369 -1.022298 115.513065 -1.069173 115.945357 -1.069173 C 116.330773 -1.069173 116.643273 -0.938965 116.888065 -0.683757 C 117.132857 -0.433757 117.252648 -0.105632 117.252648 0.305827 C 117.252648 0.659993 117.138065 1.019368 116.908898 1.378743 C 116.726607 1.633952 116.580773 1.904785 116.476607 2.180827 C 116.377648 2.462077 116.325565 2.868327 116.325565 3.404785 C 116.325565 8.738119 116.419315 12.941244 116.596398 16.024578 C 116.648482 17.409994 116.674523 18.300619 116.674523 18.706869 C 116.674523 22.430828 115.690148 25.196453 113.721398 27.008953 C 111.757856 28.821453 108.919314 29.727703 105.195356 29.727703 C 101.601606 29.727703 98.679731 28.842287 96.42973 27.066245 C 94.190147 25.290203 93.070355 22.597495 93.070355 18.977703 C 93.070355 18.467286 93.096397 17.571453 93.143272 16.295411 C 93.27348 13.800619 93.341189 11.597494 93.341189 9.680827 C 93.341189 8.300619 93.33598 7.222494 93.320355 6.441244 C 93.309939 5.665202 93.294314 5.066244 93.27348 4.649577 C 93.263064 4.222494 93.257855 3.696452 93.257855 3.061035 C 93.257855 2.706869 93.21098 2.42041 93.127647 2.20166 C 93.039105 1.98291 92.914105 1.73291 92.763064 1.45166 C 92.507855 0.993327 92.377647 0.597493 92.377647 0.269368 C 92.377647 -0.168132 92.513064 -0.496257 92.778689 -0.720215 C 93.049522 -0.95459 93.388064 -1.069173 93.799522 -1.069173 Z M 120.414107 -1.069173 C 120.924523 -1.069173 121.533898 -1.022298 122.237024 -0.938965 C 122.940149 -0.850423 123.799524 -0.808757 124.815149 -0.808757 C 125.80994 -0.808757 127.419315 -0.89209 129.643274 -1.069173 C 130.049524 -1.069173 130.367232 -0.944173 130.596399 -0.70459 C 130.825566 -0.465007 130.940149 -0.14209 130.940149 0.269368 C 130.940149 0.524577 130.893274 0.73291 130.799524 0.904785 C 130.710982 1.066243 130.658899 1.17041 130.632857 1.222493 C 130.450566 1.498535 130.304732 1.847493 130.195357 2.258952 C 130.080774 2.659993 130.023482 3.274577 130.023482 4.097494 L 130.023482 24.873536 C 130.023482 25.352703 130.070357 25.722495 130.153691 25.993328 C 130.242232 26.258953 130.377649 26.534995 130.559941 26.821453 C 130.580774 26.847495 130.653691 26.95687 130.763066 27.149578 C 130.882857 27.337078 130.940149 27.58187 130.940149 27.889161 C 130.940149 28.248537 130.830774 28.571453 130.612024 28.852703 C 130.393274 29.128745 130.070357 29.26937 129.643274 29.26937 C 127.726607 29.092287 126.190149 28.998537 125.044315 28.998537 C 124.132857 28.998537 122.549524 29.092287 120.299523 29.26937 C 119.898482 29.26937 119.570357 29.14437 119.330773 28.889162 C 119.085982 28.633953 118.96619 28.284995 118.96619 27.852703 C 118.96619 27.545411 119.080773 27.217286 119.30994 26.86312 C 119.513065 26.55062 119.658898 26.248536 119.757857 25.95687 C 119.867232 25.659995 119.919315 25.258953 119.919315 24.748536 L 119.919315 3.48291 C 119.919315 2.894369 119.867232 2.462077 119.757857 2.180827 C 119.658898 1.904785 119.523482 1.633952 119.346398 1.378743 C 119.325565 1.352702 119.252648 1.243327 119.132857 1.050618 C 119.023482 0.85791 118.96619 0.597493 118.96619 0.269368 C 118.96619 -0.168132 119.106815 -0.496257 119.388065 -0.720215 C 119.664107 -0.95459 120.007857 -1.069173 120.414107 -1.069173 Z M 136.752649 -1.069173 C 137.570358 -1.069173 138.731816 -1.022298 140.247441 -0.938965 C 141.763066 -0.850423 143.153691 -0.808757 144.403691 -0.808757 C 145.351608 -0.808757 146.278691 -0.840007 147.195358 -0.902507 C 148.112025 -0.959798 148.893275 -1.006673 149.539108 -1.032715 C 150.195358 -1.053548 150.789108 -1.069173 151.325567 -1.069173 C 152.195358 -1.069173 152.632858 -0.657715 152.632858 0.154785 C 152.632858 0.842285 152.3464 2.165202 151.7839 4.133952 C 151.2214 6.097494 150.445358 8.175619 149.455775 10.363119 C 147.976608 13.659994 147.039108 15.842286 146.653691 16.915203 C 146.273483 17.982911 146.085983 18.784994 146.085983 19.321453 C 146.085983 19.779786 146.226608 20.087078 146.50265 20.258953 C 146.7839 20.425619 147.19015 20.508953 147.726608 20.508953 C 148.3464 20.508953 148.825567 20.441244 149.164108 20.305828 C 149.507858 20.159994 149.872442 19.962078 150.257858 19.706869 C 150.664108 19.342286 151.085983 19.165203 151.518275 19.165203 C 152.007858 19.165203 152.372442 19.290203 152.612025 19.545411 C 152.856817 19.800619 152.976608 20.055828 152.976608 20.311036 C 152.976608 20.644369 152.851608 21.232911 152.5964 22.076661 C 152.085983 23.659995 151.674525 25.482911 151.362025 27.545411 C 151.263067 28.20687 151.085983 28.665203 150.830775 28.904787 C 150.575567 29.149578 150.19015 29.26937 149.679733 29.26937 C 145.398483 29.092287 142.679733 28.998537 141.5339 28.998537 C 139.903691 28.998537 138.283899 29.045412 136.679733 29.128745 C 135.070358 29.222495 134.164107 29.26937 133.960982 29.26937 C 133.523482 29.26937 133.190149 29.154787 132.960982 28.92562 C 132.731816 28.696453 132.617232 28.373537 132.617232 27.962078 C 132.617232 27.633953 132.773482 26.774578 133.091191 25.383953 C 133.414107 23.998536 133.960982 22.20687 134.726608 20.014161 C 135.492233 17.816244 136.497441 15.425619 137.742233 12.847494 C 138.507858 11.300619 139.054733 10.243327 139.388066 9.680827 C 139.617233 9.274577 139.763066 8.988119 139.825566 8.821452 C 139.893274 8.654785 139.929733 8.446452 139.929733 8.191244 C 139.929733 7.85791 139.789108 7.602702 139.507858 7.42041 C 139.226608 7.243327 138.846399 7.149577 138.356816 7.149577 C 137.872441 7.149577 137.492233 7.217285 137.210983 7.347494 C 136.929733 7.472494 136.664108 7.649577 136.408899 7.878744 C 136.174524 8.087077 135.971399 8.23291 135.789108 8.321452 C 135.617233 8.404785 135.388066 8.45166 135.106816 8.45166 C 134.747441 8.45166 134.408899 8.352702 134.091191 8.149577 C 133.773482 7.946452 133.612024 7.63916 133.612024 7.227702 C 133.612024 6.92041 133.778691 6.269369 134.106816 5.274577 C 134.544316 3.873535 134.789108 2.831869 134.835983 2.144368 C 134.934941 1.175618 135.023483 0.498535 135.101608 0.118327 C 135.179733 -0.26709 135.341191 -0.558757 135.585983 -0.761882 C 135.825566 -0.965007 136.216191 -1.069173 136.752649 -1.069173 Z M 136.752649 -1.069173 " stroke="#fff972" stroke-width="1.434998" stroke-opacity="1" stroke-miterlimit="4"/><g fill="#000000" fill-opacity="1"><g transform="translate(154.837859, 71.380004)"><g><path d="M 1.890625 -22.546875 C 2.210938 -22.546875 2.722656 -22.507812 3.421875 -22.4375 C 4.117188 -22.375 4.75 -22.34375 5.3125 -22.34375 C 5.914062 -22.34375 6.578125 -22.375 7.296875 -22.4375 C 8.015625 -22.507812 8.519531 -22.546875 8.8125 -22.546875 C 9.113281 -22.546875 9.351562 -22.453125 9.53125 -22.265625 C 9.71875 -22.085938 9.8125 -21.847656 9.8125 -21.546875 C 9.8125 -21.253906 9.722656 -20.984375 9.546875 -20.734375 C 9.421875 -20.523438 9.316406 -20.289062 9.234375 -20.03125 C 9.160156 -19.78125 9.125 -19.382812 9.125 -18.84375 L 9.125 -7.171875 C 9.125 -6.648438 9.195312 -6.320312 9.34375 -6.1875 C 9.5 -6.0625 9.863281 -6 10.4375 -6 C 10.9375 -6 11.316406 -6.039062 11.578125 -6.125 C 11.835938 -6.207031 12.082031 -6.335938 12.3125 -6.515625 C 12.457031 -6.628906 12.601562 -6.707031 12.75 -6.75 C 12.894531 -6.800781 13.070312 -6.828125 13.28125 -6.828125 C 13.582031 -6.828125 13.835938 -6.726562 14.046875 -6.53125 C 14.265625 -6.34375 14.375 -6.125 14.375 -5.875 C 14.375 -5.757812 14.34375 -5.582031 14.28125 -5.34375 C 14.226562 -5.101562 14.179688 -4.910156 14.140625 -4.765625 C 13.816406 -3.617188 13.609375 -2.519531 13.515625 -1.46875 C 13.472656 -0.894531 13.390625 -0.472656 13.265625 -0.203125 C 13.140625 0.0664062 12.847656 0.203125 12.390625 0.203125 C 12.273438 0.203125 11.789062 0.164062 10.9375 0.09375 C 10.09375 0.03125 8.734375 0 6.859375 0 C 5.710938 0 4.066406 0.0664062 1.921875 0.203125 C 1.597656 0.203125 1.332031 0.109375 1.125 -0.078125 C 0.925781 -0.273438 0.828125 -0.523438 0.828125 -0.828125 C 0.828125 -1.097656 0.914062 -1.359375 1.09375 -1.609375 C 1.238281 -1.816406 1.347656 -2.039062 1.421875 -2.28125 C 1.503906 -2.519531 1.546875 -2.859375 1.546875 -3.296875 L 1.546875 -19.25 C 1.546875 -19.613281 1.507812 -19.882812 1.4375 -20.0625 C 1.375 -20.25 1.273438 -20.457031 1.140625 -20.6875 C 1.023438 -20.832031 0.941406 -20.960938 0.890625 -21.078125 C 0.847656 -21.191406 0.828125 -21.347656 0.828125 -21.546875 C 0.828125 -21.847656 0.921875 -22.085938 1.109375 -22.265625 C 1.304688 -22.453125 1.566406 -22.546875 1.890625 -22.546875 Z M 1.890625 -22.546875 "/></g></g></g><g fill="#000000" fill-opacity="1"><g transform="translate(169.181597, 71.380004)"><g><path d="M 1.71875 -22.546875 C 1.894531 -22.546875 2.335938 -22.507812 3.046875 -22.4375 C 3.753906 -22.375 4.429688 -22.34375 5.078125 -22.34375 C 5.765625 -22.34375 6.515625 -22.375 7.328125 -22.4375 C 8.140625 -22.507812 8.632812 -22.546875 8.8125 -22.546875 C 9.132812 -22.546875 9.390625 -22.453125 9.578125 -22.265625 C 9.773438 -22.085938 9.875 -21.847656 9.875 -21.546875 C 9.875 -21.367188 9.851562 -21.226562 9.8125 -21.125 C 9.769531 -21.019531 9.703125 -20.898438 9.609375 -20.765625 C 9.472656 -20.554688 9.363281 -20.320312 9.28125 -20.0625 C 9.195312 -19.800781 9.15625 -19.40625 9.15625 -18.875 C 9.15625 -11.113281 9.164062 -7.191406 9.1875 -7.109375 C 9.257812 -6.691406 9.429688 -6.375 9.703125 -6.15625 C 9.984375 -5.9375 10.328125 -5.828125 10.734375 -5.828125 C 11.242188 -5.828125 11.648438 -5.960938 11.953125 -6.234375 C 12.265625 -6.515625 12.421875 -6.882812 12.421875 -7.34375 C 12.421875 -7.476562 12.410156 -7.78125 12.390625 -8.25 C 12.367188 -8.71875 12.359375 -9.535156 12.359375 -10.703125 L 12.359375 -19.3125 C 12.359375 -19.632812 12.320312 -19.890625 12.25 -20.078125 C 12.1875 -20.273438 12.09375 -20.46875 11.96875 -20.65625 C 11.769531 -20.957031 11.671875 -21.253906 11.671875 -21.546875 C 11.671875 -21.867188 11.757812 -22.113281 11.9375 -22.28125 C 12.125 -22.457031 12.378906 -22.546875 12.703125 -22.546875 C 13.015625 -22.546875 13.28125 -22.535156 13.5 -22.515625 C 13.71875 -22.492188 14.023438 -22.457031 14.421875 -22.40625 C 14.828125 -22.363281 15.210938 -22.34375 15.578125 -22.34375 C 15.898438 -22.34375 16.359375 -22.375 16.953125 -22.4375 C 17.546875 -22.507812 18.003906 -22.546875 18.328125 -22.546875 C 18.617188 -22.546875 18.851562 -22.445312 19.03125 -22.25 C 19.21875 -22.0625 19.3125 -21.816406 19.3125 -21.515625 C 19.3125 -21.242188 19.222656 -20.976562 19.046875 -20.71875 C 18.910156 -20.519531 18.804688 -20.316406 18.734375 -20.109375 C 18.660156 -19.898438 18.625 -19.59375 18.625 -19.1875 C 18.625 -15.195312 18.6875 -12.039062 18.8125 -9.71875 C 18.851562 -8.6875 18.875 -8.019531 18.875 -7.71875 C 18.875 -4.925781 18.132812 -2.847656 16.65625 -1.484375 C 15.1875 -0.128906 13.054688 0.546875 10.265625 0.546875 C 7.566406 0.546875 5.375 -0.113281 3.6875 -1.4375 C 2.007812 -2.769531 1.171875 -4.796875 1.171875 -7.515625 C 1.171875 -7.898438 1.191406 -8.570312 1.234375 -9.53125 C 1.328125 -11.394531 1.375 -13.046875 1.375 -14.484375 C 1.375 -15.515625 1.367188 -16.320312 1.359375 -16.90625 C 1.347656 -17.488281 1.335938 -17.9375 1.328125 -18.25 C 1.316406 -18.570312 1.3125 -18.972656 1.3125 -19.453125 C 1.3125 -19.722656 1.28125 -19.9375 1.21875 -20.09375 C 1.15625 -20.257812 1.066406 -20.445312 0.953125 -20.65625 C 0.753906 -21 0.65625 -21.296875 0.65625 -21.546875 C 0.65625 -21.867188 0.753906 -22.113281 0.953125 -22.28125 C 1.160156 -22.457031 1.414062 -22.546875 1.71875 -22.546875 Z M 1.71875 -22.546875 "/></g></g></g><g fill="#000000" fill-opacity="1"><g transform="translate(188.947271, 71.380004)"><g><path d="M 1.921875 -22.546875 C 2.304688 -22.546875 2.757812 -22.507812 3.28125 -22.4375 C 3.8125 -22.375 4.457031 -22.34375 5.21875 -22.34375 C 5.96875 -22.34375 7.171875 -22.410156 8.828125 -22.546875 C 9.140625 -22.546875 9.378906 -22.453125 9.546875 -22.265625 C 9.722656 -22.085938 9.8125 -21.847656 9.8125 -21.546875 C 9.8125 -21.347656 9.773438 -21.1875 9.703125 -21.0625 C 9.640625 -20.945312 9.597656 -20.867188 9.578125 -20.828125 C 9.441406 -20.617188 9.332031 -20.359375 9.25 -20.046875 C 9.164062 -19.742188 9.125 -19.285156 9.125 -18.671875 L 9.125 -3.09375 C 9.125 -2.726562 9.15625 -2.445312 9.21875 -2.25 C 9.289062 -2.050781 9.394531 -1.847656 9.53125 -1.640625 C 9.539062 -1.617188 9.585938 -1.535156 9.671875 -1.390625 C 9.765625 -1.242188 9.8125 -1.054688 9.8125 -0.828125 C 9.8125 -0.566406 9.726562 -0.328125 9.5625 -0.109375 C 9.40625 0.0976562 9.160156 0.203125 8.828125 0.203125 C 7.398438 0.0664062 6.253906 0 5.390625 0 C 4.703125 0 3.519531 0.0664062 1.84375 0.203125 C 1.53125 0.203125 1.28125 0.109375 1.09375 -0.078125 C 0.914062 -0.273438 0.828125 -0.535156 0.828125 -0.859375 C 0.828125 -1.085938 0.914062 -1.335938 1.09375 -1.609375 C 1.238281 -1.835938 1.347656 -2.0625 1.421875 -2.28125 C 1.503906 -2.5 1.546875 -2.800781 1.546875 -3.1875 L 1.546875 -19.140625 C 1.546875 -19.578125 1.503906 -19.898438 1.421875 -20.109375 C 1.347656 -20.316406 1.25 -20.519531 1.125 -20.71875 C 1.101562 -20.726562 1.046875 -20.804688 0.953125 -20.953125 C 0.867188 -21.097656 0.828125 -21.296875 0.828125 -21.546875 C 0.828125 -21.867188 0.929688 -22.113281 1.140625 -22.28125 C 1.359375 -22.457031 1.617188 -22.546875 1.921875 -22.546875 Z M 1.921875 -22.546875 "/></g></g></g><g fill="#000000" fill-opacity="1"><g transform="translate(199.590322, 71.380004)"><g><path d="M 3.53125 -22.546875 C 4.144531 -22.546875 5.019531 -22.507812 6.15625 -22.4375 C 7.289062 -22.375 8.328125 -22.34375 9.265625 -22.34375 C 9.972656 -22.34375 10.671875 -22.363281 11.359375 -22.40625 C 12.046875 -22.457031 12.632812 -22.492188 13.125 -22.515625 C 13.613281 -22.535156 14.054688 -22.546875 14.453125 -22.546875 C 15.109375 -22.546875 15.4375 -22.238281 15.4375 -21.625 C 15.4375 -21.113281 15.222656 -20.117188 14.796875 -18.640625 C 14.378906 -17.171875 13.796875 -15.613281 13.046875 -13.96875 C 11.941406 -11.5 11.242188 -9.863281 10.953125 -9.0625 C 10.671875 -8.257812 10.53125 -7.660156 10.53125 -7.265625 C 10.53125 -6.910156 10.632812 -6.671875 10.84375 -6.546875 C 11.050781 -6.429688 11.359375 -6.375 11.765625 -6.375 C 12.222656 -6.375 12.578125 -6.425781 12.828125 -6.53125 C 13.085938 -6.632812 13.363281 -6.78125 13.65625 -6.96875 C 13.957031 -7.238281 14.273438 -7.375 14.609375 -7.375 C 14.960938 -7.375 15.226562 -7.273438 15.40625 -7.078125 C 15.59375 -6.890625 15.6875 -6.703125 15.6875 -6.515625 C 15.6875 -6.265625 15.59375 -5.820312 15.40625 -5.1875 C 15.019531 -4 14.710938 -2.632812 14.484375 -1.09375 C 14.410156 -0.59375 14.273438 -0.25 14.078125 -0.0625 C 13.890625 0.113281 13.601562 0.203125 13.21875 0.203125 C 10.007812 0.0664062 7.972656 0 7.109375 0 C 5.890625 0 4.675781 0.03125 3.46875 0.09375 C 2.257812 0.164062 1.582031 0.203125 1.4375 0.203125 C 1.113281 0.203125 0.863281 0.117188 0.6875 -0.046875 C 0.519531 -0.222656 0.4375 -0.46875 0.4375 -0.78125 C 0.4375 -1.019531 0.550781 -1.660156 0.78125 -2.703125 C 1.019531 -3.753906 1.425781 -5.097656 2 -6.734375 C 2.582031 -8.378906 3.34375 -10.171875 4.28125 -12.109375 C 4.851562 -13.273438 5.265625 -14.066406 5.515625 -14.484375 C 5.679688 -14.796875 5.785156 -15.007812 5.828125 -15.125 C 5.878906 -15.25 5.90625 -15.410156 5.90625 -15.609375 C 5.90625 -15.859375 5.800781 -16.046875 5.59375 -16.171875 C 5.382812 -16.304688 5.097656 -16.375 4.734375 -16.375 C 4.367188 -16.375 4.082031 -16.328125 3.875 -16.234375 C 3.664062 -16.140625 3.460938 -16.003906 3.265625 -15.828125 C 3.097656 -15.679688 2.945312 -15.570312 2.8125 -15.5 C 2.675781 -15.4375 2.503906 -15.40625 2.296875 -15.40625 C 2.023438 -15.40625 1.769531 -15.476562 1.53125 -15.625 C 1.289062 -15.78125 1.171875 -16.015625 1.171875 -16.328125 C 1.171875 -16.554688 1.296875 -17.039062 1.546875 -17.78125 C 1.867188 -18.832031 2.050781 -19.617188 2.09375 -20.140625 C 2.164062 -20.867188 2.226562 -21.375 2.28125 -21.65625 C 2.34375 -21.945312 2.460938 -22.164062 2.640625 -22.3125 C 2.828125 -22.46875 3.125 -22.546875 3.53125 -22.546875 Z M 3.53125 -22.546875 "/></g></g></g><path stroke-linecap="butt" transform="matrix(0.75, 0, 0, 0.75, 101.274834, 11.872899)" fill="none" stroke-linejoin="miter" d="M 11.701264 -1.101365 C 12.086681 -1.101365 12.435639 -1.08574 12.742931 -1.059698 C 13.045014 -1.038865 13.466889 -0.99199 14.003347 -0.92949 C 14.539806 -0.86699 15.060639 -0.83574 15.576264 -0.83574 C 16.216889 -0.83574 16.779389 -0.851365 17.258556 -0.877407 C 17.742931 -0.89824 18.425223 -0.945115 19.305431 -1.007615 C 20.190848 -1.070115 21.055431 -1.101365 21.893973 -1.101365 C 26.597098 -1.101365 30.055432 0.242385 32.274182 2.919468 C 34.492932 5.60176 35.602307 9.278844 35.602307 13.945511 C 35.602307 17.294469 35.034599 20.112178 33.899182 22.398636 C 32.768973 24.679886 31.175223 26.398636 29.133557 27.549678 C 27.086681 28.695511 24.701265 29.273636 21.972098 29.273636 C 21.331473 29.273636 20.768973 29.258011 20.268973 29.226761 C 19.768973 29.20072 19.081473 29.153845 18.211681 29.091345 C 17.341889 29.028845 16.503348 28.997595 15.685639 28.997595 C 15.378347 28.997595 14.003347 29.091345 11.555431 29.273636 C 11.175222 29.273636 10.862722 29.143428 10.617931 28.88822 C 10.373139 28.633011 10.253347 28.299678 10.253347 27.88822 C 10.253347 27.711136 10.289806 27.534053 10.367931 27.351761 C 10.440847 27.174678 10.529389 26.997595 10.638764 26.820511 C 11.018972 26.205928 11.206472 25.554886 11.206472 24.867386 L 11.206472 3.60176 C 11.206472 2.966343 11.154389 2.502802 11.050222 2.211135 C 10.946056 1.919468 10.810639 1.643427 10.638764 1.388218 C 10.503347 1.179885 10.409597 1.002802 10.347097 0.856968 C 10.284597 0.700718 10.253347 0.492385 10.253347 0.237177 C 10.253347 -0.200323 10.383556 -0.528448 10.638764 -0.752407 C 10.893972 -0.986782 11.248139 -1.101365 11.701264 -1.101365 Z M 20.706473 8.315302 L 20.706473 19.612178 C 20.706473 20.023636 20.810639 20.299678 21.013764 20.445511 C 21.222098 20.580928 21.664806 20.648636 22.352306 20.648636 C 23.753348 20.648636 24.701265 20.065303 25.18564 18.893428 C 25.670015 17.716344 25.914806 16.039261 25.914806 13.872594 C 25.914806 11.497594 25.633556 9.75801 25.076265 8.66426 C 24.513765 7.565302 23.545015 7.018427 22.164806 7.018427 C 21.550223 7.018427 21.149181 7.10176 20.966889 7.268427 C 20.795014 7.429885 20.706473 7.778844 20.706473 8.315302 Z M 40.81064 -1.101365 C 40.987724 -1.101365 41.383557 -1.075323 41.998141 -1.02324 C 43.784599 -0.89824 46.430432 -0.83574 49.925224 -0.83574 C 52.888766 -0.83574 55.670016 -0.913865 58.274183 -1.059698 C 58.555433 -1.08574 58.8471 -1.101365 59.154391 -1.101365 C 59.638766 -1.101365 59.998141 -0.96074 60.232517 -0.67949 C 60.461683 -0.39824 60.62835 0.174677 60.727308 1.03926 C 60.883558 2.72676 61.112725 4.03926 61.420017 4.987177 C 61.518975 5.450719 61.56585 5.752802 61.56585 5.903844 C 61.56585 6.211135 61.435642 6.466344 61.164808 6.669469 C 60.899183 6.877802 60.5971 6.981969 60.268975 6.981969 C 60.117933 6.981969 59.935641 6.950719 59.716891 6.888219 C 59.498141 6.815302 59.326266 6.768427 59.201266 6.747594 C 57.586683 6.231969 55.7221 5.97676 53.602308 5.97676 L 51.076266 5.97676 C 50.591891 5.97676 50.263766 6.075719 50.091891 6.268427 C 49.930433 6.461135 49.852308 6.773635 49.852308 7.205927 L 49.852308 9.231969 C 49.852308 9.69551 49.966891 9.992385 50.196058 10.122594 C 50.425224 10.247594 50.847099 10.310094 51.461683 10.310094 L 54.487725 10.310094 C 55.477308 10.310094 56.362725 10.185094 57.143975 9.94551 C 57.925225 9.700719 58.404391 9.580927 58.586683 9.580927 C 58.998141 9.580927 59.305433 9.705927 59.518975 9.961135 C 59.737725 10.216344 59.8471 10.528844 59.8471 10.888219 C 59.8471 11.143427 59.821058 11.591344 59.774183 12.226761 C 59.7221 12.862177 59.696058 13.346552 59.696058 13.685094 L 59.8471 16.356969 C 59.8471 16.638219 59.727308 16.914261 59.482516 17.179886 C 59.237725 17.450719 58.925225 17.580928 58.545016 17.580928 C 58.367933 17.580928 58.018975 17.508011 57.508558 17.356969 C 56.998141 17.200719 56.529391 17.080927 56.107516 16.992386 C 55.69085 16.909052 55.123141 16.862177 54.414808 16.862177 L 51.185641 16.862177 C 50.732516 16.862177 50.393974 16.940302 50.180433 17.096552 C 49.961683 17.247594 49.852308 17.549678 49.852308 18.002803 L 49.852308 20.153844 C 49.852308 20.617386 49.935641 20.919469 50.112724 21.060094 C 50.295016 21.200719 50.612724 21.278844 51.076266 21.304886 C 51.998141 21.351761 52.930433 21.377803 53.873141 21.377803 C 55.331475 21.377803 56.524183 21.294469 57.451266 21.117386 C 58.388766 20.935094 59.263766 20.700719 60.081475 20.414261 C 60.461683 20.268428 60.75335 20.190303 60.961683 20.190303 C 61.31585 20.190303 61.617933 20.304886 61.873142 20.539261 C 62.133558 20.768428 62.258558 21.034053 62.258558 21.341344 C 62.258558 21.674678 62.133558 22.221553 61.873142 22.987178 C 61.727308 23.523636 61.555433 24.315303 61.362725 25.362178 C 61.170017 26.409053 61.071058 27.07572 61.071058 27.351761 C 61.045017 27.992386 60.930433 28.471553 60.727308 28.79447 C 60.524183 29.112178 60.143975 29.273636 59.576266 29.273636 L 57.742933 29.185095 C 54.248141 29.060095 51.232516 28.997595 48.701266 28.997595 C 45.789807 28.997595 43.779391 29.04447 42.670016 29.133011 C 41.560641 29.226761 40.914807 29.273636 40.732515 29.273636 C 40.305432 29.273636 39.96689 29.143428 39.722099 28.88822 C 39.482515 28.633011 39.357515 28.284053 39.357515 27.851761 C 39.357515 27.643428 39.388765 27.466345 39.451265 27.315303 C 39.513765 27.159053 39.62314 26.966345 39.768974 26.737178 C 39.925224 26.508011 40.055432 26.237178 40.15439 25.935095 C 40.258557 25.627803 40.31064 25.195511 40.31064 24.633011 L 40.31064 3.455927 C 40.31064 2.919468 40.258557 2.50801 40.15439 2.22676 C 40.055432 1.950718 39.930432 1.69551 39.789807 1.461135 C 39.65439 1.231968 39.545015 1.028843 39.472099 0.856968 C 39.399182 0.674677 39.357515 0.466343 39.357515 0.237177 C 39.357515 -0.174282 39.487724 -0.497198 39.742932 -0.736782 C 39.99814 -0.976365 40.352307 -1.101365 40.81064 -1.101365 Z M 67.117934 -1.101365 C 67.50335 -1.101365 67.857517 -1.08574 68.175225 -1.059698 C 68.492934 -1.038865 68.9721 -0.99199 69.607517 -0.92949 C 70.248142 -0.86699 70.873142 -0.83574 71.487725 -0.83574 C 72.201267 -0.83574 72.831476 -0.851365 73.367934 -0.877407 C 73.899184 -0.89824 74.659601 -0.945115 75.638767 -1.007615 C 76.623142 -1.070115 77.550226 -1.101365 78.425226 -1.101365 C 82.555434 -1.101365 85.617935 -0.0909484 87.607518 1.929885 C 89.60231 3.94551 90.597101 6.747594 90.597101 10.346552 C 90.597101 12.622594 90.190851 14.648636 89.373143 16.424677 C 88.555435 18.195511 87.32106 19.591344 85.659601 20.612178 C 84.003351 21.633011 81.946059 22.143428 79.487726 22.143428 C 79.263768 22.143428 78.529392 22.106969 77.274184 22.034053 C 76.992934 22.034053 76.779392 22.096553 76.638767 22.221553 C 76.503351 22.346553 76.430434 22.612178 76.430434 23.023636 L 76.430434 24.784053 C 76.430434 25.242386 76.482517 25.622595 76.581476 25.914261 C 76.685642 26.205928 76.826267 26.508011 77.003351 26.820511 C 77.029392 26.872595 77.097101 26.997595 77.206476 27.205928 C 77.326267 27.403845 77.383559 27.633011 77.383559 27.88822 C 77.383559 28.299678 77.263767 28.633011 77.018976 28.88822 C 76.779392 29.143428 76.456476 29.273636 76.050226 29.273636 C 75.920017 29.273636 75.435642 29.226761 74.607517 29.133011 C 73.779392 29.04447 72.831476 28.997595 71.758559 28.997595 C 70.758559 28.997595 69.19085 29.091345 67.045017 29.273636 C 66.591892 29.273636 66.248142 29.143428 66.013767 28.88822 C 65.7846 28.633011 65.670017 28.299678 65.670017 27.88822 C 65.670017 27.633011 65.701267 27.435095 65.763767 27.299678 C 65.826267 27.153845 65.920017 26.997595 66.055433 26.820511 C 66.227308 26.565303 66.362725 26.284053 66.466892 25.98197 C 66.571059 25.66947 66.623142 25.195511 66.623142 24.560095 L 66.623142 3.690302 C 66.623142 3.018427 66.571059 2.534052 66.466892 2.22676 C 66.362725 1.924677 66.216892 1.617385 66.013767 1.315302 C 65.883558 1.13301 65.795017 0.971552 65.742933 0.836135 C 65.696058 0.690302 65.670017 0.50801 65.670017 0.273635 C 65.670017 -0.163865 65.810642 -0.497198 66.091892 -0.736782 C 66.373142 -0.976365 66.711684 -1.101365 67.117934 -1.101365 Z M 76.013767 7.513219 L 76.013767 13.523636 C 76.013767 13.909052 76.112726 14.179886 76.310642 14.336136 C 76.518976 14.487177 76.899184 14.560094 77.461684 14.560094 C 78.508559 14.560094 79.367934 14.221552 80.039809 13.534052 C 80.722101 12.841344 81.060643 11.830927 81.060643 10.502802 C 81.060643 9.200719 80.768976 8.205927 80.180434 7.523635 C 79.597101 6.830927 78.701267 6.481969 77.498142 6.481969 C 76.888767 6.481969 76.487726 6.549677 76.289809 6.679885 C 76.107517 6.804885 76.013767 7.080927 76.013767 7.513219 Z M 106.612727 -1.606574 C 109.393977 -1.606574 111.774186 -0.893032 113.763769 0.528843 C 115.758561 1.940302 117.274186 3.836135 118.310645 6.211135 C 119.341895 8.586135 119.862728 11.164261 119.862728 13.945511 C 119.862728 16.961136 119.383561 19.659053 118.42002 22.034053 C 117.466895 24.403845 115.998144 26.278845 114.018978 27.664261 C 112.039811 29.039261 109.586686 29.726761 106.649186 29.726761 C 103.711685 29.726761 101.25856 29.054886 99.28981 27.70072 C 97.326268 26.346553 95.873143 24.508011 94.925227 22.185094 C 93.982518 19.856969 93.513768 17.226761 93.513768 14.289261 C 93.513768 10.867385 94.086685 7.966344 95.232518 5.575719 C 96.378352 3.190302 97.940852 1.398635 99.91481 0.200718 C 101.899185 -1.002407 104.128352 -1.606574 106.612727 -1.606574 Z M 103.930435 13.909052 C 103.930435 16.440302 104.10231 18.310094 104.440852 19.528844 C 104.789811 20.737178 105.539811 21.341344 106.685644 21.341344 C 107.784602 21.341344 108.513769 20.721553 108.883561 19.481969 C 109.258561 18.242386 109.446061 16.409052 109.446061 13.981969 C 109.446061 11.351761 109.248144 9.471552 108.847102 8.336135 C 108.456477 7.200719 107.722102 6.63301 106.649186 6.63301 C 105.550227 6.63301 104.821061 7.237177 104.461686 8.440302 C 104.107519 9.63301 103.930435 11.455927 103.930435 13.909052 Z M 107.602311 -8.570116 C 107.753352 -8.570116 108.050227 -8.544074 108.498144 -8.497199 C 108.951269 -8.445116 109.326269 -8.419074 109.633561 -8.419074 L 111.847103 -8.533657 C 112.159603 -8.533657 112.404394 -8.424282 112.576269 -8.205532 C 112.758561 -7.986782 112.847103 -7.752407 112.847103 -7.497199 C 112.847103 -7.163865 112.701269 -6.830532 112.409603 -6.486782 C 112.117936 -6.143032 111.435644 -5.445115 110.362727 -4.39824 C 109.826269 -3.887824 109.466894 -3.570115 109.284602 -3.434699 C 109.107519 -3.314907 108.914811 -3.252407 108.716894 -3.252407 C 107.513769 -3.299282 106.748144 -3.325324 106.414811 -3.325324 C 105.440852 -3.27324 104.789811 -3.252407 104.461686 -3.252407 C 104.050227 -3.252407 103.841894 -3.393032 103.841894 -3.669074 C 103.841894 -3.794074 103.998144 -4.075324 104.310644 -4.512824 L 106.341894 -7.455532 C 106.696061 -7.971157 106.940852 -8.278449 107.081477 -8.393032 C 107.222102 -8.512824 107.399186 -8.570116 107.602311 -8.570116 Z M 134.180437 -1.564907 C 135.612729 -1.564907 137.310646 -1.33574 139.274187 -0.877407 C 139.836687 -0.74199 140.185646 -0.67949 140.315854 -0.67949 C 140.461687 -0.67949 140.670021 -0.74199 140.940854 -0.86699 C 141.206479 -0.997198 141.482521 -1.059698 141.763771 -1.059698 C 142.248146 -1.059698 142.638771 -0.92949 142.930438 -0.658657 C 143.227313 -0.393032 143.373146 -0.0440734 143.373146 0.388218 L 143.336688 2.377802 C 143.336688 2.966343 143.425229 3.63301 143.607521 4.388218 C 143.784604 5.143427 143.920021 5.731969 144.008563 6.159052 C 144.097104 6.575719 144.138771 6.810094 144.138771 6.867385 C 144.138771 7.117385 144.024188 7.367385 143.795021 7.622594 C 143.565854 7.877802 143.274188 8.00801 142.914813 8.00801 C 142.659604 8.00801 142.071062 7.804885 141.154396 7.398635 C 140.159604 6.987177 139.305437 6.674677 138.602312 6.466344 C 137.904396 6.247594 137.170021 6.138219 136.404396 6.138219 C 135.737729 6.138219 135.190854 6.294469 134.768979 6.612177 C 134.352312 6.935094 134.143979 7.398635 134.143979 8.00801 C 134.143979 8.60176 134.352312 9.065302 134.768979 9.409052 C 135.190854 9.752802 135.940854 10.075719 137.013771 10.38301 C 138.753354 10.867385 140.222104 11.450719 141.420021 12.133011 C 142.623146 12.804886 143.576271 13.763219 144.289813 15.002802 C 145.003354 16.242386 145.362729 17.830928 145.362729 19.768428 C 145.362729 21.940303 144.873146 23.773636 143.883563 25.268428 C 142.909604 26.758011 141.586687 27.872595 139.920021 28.617386 C 138.263771 29.35697 136.404396 29.726761 134.336687 29.726761 C 132.623145 29.726761 130.466895 29.424678 127.85752 28.815303 C 127.404395 28.679886 127.133562 28.617386 127.055437 28.617386 C 126.878353 28.617386 126.623145 28.705928 126.289812 28.88822 C 125.956478 29.060095 125.63877 29.148636 125.336687 29.148636 C 124.649187 29.148636 124.216895 28.966345 124.034603 28.596553 C 123.852312 28.23197 123.76377 27.674678 123.76377 26.935095 C 123.76377 25.88822 123.706478 25.008011 123.586687 24.29447 C 123.472103 23.580928 123.331478 22.836136 123.154395 22.070511 C 122.977311 21.351761 122.883561 20.841344 122.883561 20.539261 C 122.883561 20.231969 123.008561 19.950719 123.248145 19.695511 C 123.492937 19.440303 123.779395 19.315303 124.10752 19.315303 C 124.341895 19.315303 124.591895 19.372594 124.85752 19.492386 C 125.123145 19.601761 125.425228 19.747594 125.753353 19.919469 C 125.961687 20.028844 126.461687 20.284053 127.253353 20.695511 C 128.04502 21.101761 128.836687 21.419469 129.628354 21.648636 C 130.42002 21.872594 131.17002 21.987178 131.88877 21.987178 C 132.524187 21.987178 133.034604 21.825719 133.414812 21.508011 C 133.800229 21.190303 133.992937 20.726761 133.992937 20.117386 C 133.992937 19.450719 133.768979 18.961136 133.321062 18.659053 C 132.873145 18.351761 131.956479 17.981969 130.581479 17.544469 C 128.10752 16.752802 126.279395 15.695511 125.102312 14.367386 C 123.930437 13.039261 123.341895 11.138219 123.341895 8.66426 C 123.341895 6.44551 123.821062 4.560093 124.774187 3.013218 C 125.73252 1.466343 127.029395 0.32051 128.664812 -0.434698 C 130.300229 -1.189907 132.143979 -1.564907 134.180437 -1.564907 Z M 150.149188 -1.101365 C 150.659605 -1.101365 151.26898 -1.05449 151.972105 -0.971157 C 152.67523 -0.882615 153.534605 -0.83574 154.55023 -0.83574 C 155.55023 -0.83574 157.159605 -0.924282 159.388772 -1.101365 C 159.789813 -1.101365 160.107522 -0.976365 160.341897 -0.736782 C 160.571063 -0.497198 160.685647 -0.174282 160.685647 0.237177 C 160.685647 0.492385 160.638772 0.705927 160.545022 0.872593 C 160.45648 1.034052 160.404397 1.143427 160.378355 1.190302 C 160.196063 1.471552 160.05023 1.815302 159.940855 2.22676 C 159.826272 2.63301 159.76898 3.247593 159.76898 4.07051 L 159.76898 24.867386 C 159.76898 25.346553 159.815855 25.721553 159.899188 25.987178 C 159.98773 26.258011 160.123147 26.534053 160.305438 26.820511 C 160.326272 26.846553 160.39398 26.955928 160.508563 27.148636 C 160.628355 27.336136 160.685647 27.580928 160.685647 27.88822 C 160.685647 28.247595 160.576272 28.570511 160.357522 28.851761 C 160.138772 29.133011 159.815855 29.273636 159.388772 29.273636 C 157.466897 29.091345 155.935647 28.997595 154.784605 28.997595 C 153.867938 28.997595 152.284605 29.091345 150.034605 29.273636 C 149.628355 29.273636 149.305438 29.143428 149.065855 28.88822 C 148.821063 28.633011 148.701271 28.284053 148.701271 27.851761 C 148.701271 27.54447 148.815855 27.216345 149.045021 26.85697 C 149.242938 26.54447 149.39398 26.242386 149.492938 25.95072 C 149.597105 25.659053 149.654396 25.258011 149.654396 24.747595 L 149.654396 3.455927 C 149.654396 2.867385 149.597105 2.435093 149.492938 2.153843 C 149.39398 1.872593 149.258563 1.606968 149.08148 1.35176 C 149.055438 1.325718 148.98773 1.216343 148.867938 1.023635 C 148.753355 0.830927 148.701271 0.57051 148.701271 0.237177 C 148.701271 -0.200323 148.836688 -0.528448 149.117938 -0.752407 C 149.399188 -0.986782 149.742938 -1.101365 150.149188 -1.101365 Z M 166.159605 -1.101365 C 166.440855 -1.101365 167.039814 -1.075323 167.961689 -1.02324 C 170.081481 -0.89824 172.393981 -0.83574 174.893981 -0.83574 C 176.170023 -0.83574 178.086689 -0.89824 180.633565 -1.02324 L 182.857523 -1.101365 C 183.347106 -1.101365 183.71169 -1.033657 183.951273 -0.903448 C 184.196065 -0.778448 184.378356 -0.528448 184.503356 -0.14824 C 184.638773 0.231968 184.701273 0.82051 184.701273 1.612177 C 184.727315 2.560093 184.789815 3.377802 184.888773 4.07051 C 184.987731 4.75801 185.128356 5.497594 185.310648 6.28926 C 185.440856 6.924677 185.503356 7.346552 185.503356 7.549677 C 185.503356 7.877802 185.388773 8.169469 185.159606 8.409052 C 184.93044 8.653844 184.607523 8.773635 184.196065 8.773635 C 183.888773 8.773635 183.482523 8.63301 182.972106 8.35176 C 182.591898 8.148635 182.227315 7.987177 181.878356 7.877802 C 181.534606 7.763219 181.14919 7.711135 180.716898 7.711135 C 180.279398 7.711135 179.977314 7.784052 179.810648 7.940302 C 179.649189 8.091344 179.565856 8.367385 179.565856 8.773635 L 179.565856 24.633011 C 179.565856 25.268428 179.617939 25.742386 179.716898 26.054886 C 179.826273 26.362178 179.961689 26.63822 180.138773 26.898636 C 180.268981 27.070511 180.357523 27.23197 180.409606 27.372595 C 180.46169 27.508011 180.482523 27.695511 180.482523 27.924678 C 180.482523 28.336136 180.362731 28.664261 180.117939 28.909053 C 179.878356 29.148636 179.565856 29.273636 179.185648 29.273636 C 179.029398 29.273636 178.576273 29.226761 177.821064 29.133011 C 177.071064 29.04447 176.018981 28.997595 174.659606 28.997595 C 173.435647 28.997595 171.831481 29.091345 169.836689 29.273636 C 169.430439 29.273636 169.102314 29.143428 168.862731 28.88822 C 168.617939 28.633011 168.498147 28.284053 168.498147 27.851761 C 168.498147 27.570511 168.612731 27.26322 168.841897 26.935095 C 169.024189 26.627803 169.170022 26.310095 169.284606 25.98197 C 169.393981 25.643428 169.451272 25.16947 169.451272 24.560095 L 169.451272 8.898635 C 169.451272 8.409052 169.362731 8.07051 169.180439 7.877802 C 169.003356 7.685094 168.664814 7.586135 168.149189 7.586135 C 167.690856 7.586135 167.321064 7.648635 167.039814 7.763219 C 166.758564 7.877802 166.440855 8.034052 166.086689 8.242385 C 166.034605 8.268427 165.89398 8.35176 165.664814 8.492385 C 165.435647 8.63301 165.17523 8.700719 164.899189 8.700719 C 164.461689 8.700719 164.107522 8.57051 163.841897 8.315302 C 163.571064 8.060094 163.440855 7.794469 163.440855 7.513219 C 163.440855 7.284052 163.529397 6.784052 163.711689 6.018427 C 164.170022 4.38301 164.440855 2.700718 164.513772 0.966343 C 164.565855 0.174677 164.690855 -0.36699 164.899189 -0.658657 C 165.102314 -0.955532 165.524189 -1.101365 166.159605 -1.101365 Z M 200.862732 -1.606574 C 203.643982 -1.606574 206.029399 -0.893032 208.013774 0.528843 C 210.008566 1.940302 211.524191 3.836135 212.56065 6.211135 C 213.597108 8.586135 214.112733 11.164261 214.112733 13.945511 C 214.112733 16.961136 213.633566 19.659053 212.670025 22.034053 C 211.7169 24.403845 210.248149 26.278845 208.268983 27.664261 C 206.289816 29.039261 203.836691 29.726761 200.899191 29.726761 C 197.96169 29.726761 195.508565 29.054886 193.539815 27.70072 C 191.576273 26.346553 190.123148 24.508011 189.175232 22.185094 C 188.232523 19.856969 187.763773 17.226761 187.763773 14.289261 C 187.763773 10.867385 188.33669 7.966344 189.482523 5.575719 C 190.628357 3.190302 192.190857 1.398635 194.164815 0.200718 C 196.14919 -1.002407 198.383565 -1.606574 200.862732 -1.606574 Z M 198.18044 13.909052 C 198.18044 16.440302 198.352315 18.310094 198.690857 19.528844 C 199.039815 20.737178 199.789816 21.341344 200.935649 21.341344 C 202.034607 21.341344 202.768982 20.721553 203.133566 19.481969 C 203.508566 18.242386 203.696066 16.409052 203.696066 13.981969 C 203.696066 11.351761 203.498149 9.471552 203.097107 8.336135 C 202.706482 7.200719 201.972107 6.63301 200.899191 6.63301 C 199.800232 6.63301 199.071065 7.237177 198.71169 8.440302 C 198.357524 9.63301 198.18044 11.455927 198.18044 13.909052 Z M 198.18044 13.909052 " stroke="#fff972" stroke-width="1.197041" stroke-opacity="1" stroke-miterlimit="4"/><g fill="#e60124" fill-opacity="1"><g transform="translate(108.130302, 33.622898)"><g><path d="M 1.921875 -22.578125 C 2.210938 -22.578125 2.472656 -22.566406 2.703125 -22.546875 C 2.929688 -22.523438 3.242188 -22.488281 3.640625 -22.4375 C 4.046875 -22.394531 4.441406 -22.375 4.828125 -22.375 C 5.304688 -22.375 5.726562 -22.378906 6.09375 -22.390625 C 6.457031 -22.410156 6.96875 -22.445312 7.625 -22.5 C 8.28125 -22.550781 8.925781 -22.578125 9.5625 -22.578125 C 13.082031 -22.578125 15.675781 -21.570312 17.34375 -19.5625 C 19.007812 -17.550781 19.84375 -14.789062 19.84375 -11.28125 C 19.84375 -8.78125 19.414062 -6.671875 18.5625 -4.953125 C 17.707031 -3.242188 16.515625 -1.957031 14.984375 -1.09375 C 13.453125 -0.226562 11.664062 0.203125 9.625 0.203125 C 9.144531 0.203125 8.71875 0.191406 8.34375 0.171875 C 7.96875 0.148438 7.453125 0.113281 6.796875 0.0625 C 6.148438 0.0195312 5.519531 0 4.90625 0 C 4.675781 0 3.644531 0.0664062 1.8125 0.203125 C 1.519531 0.203125 1.28125 0.109375 1.09375 -0.078125 C 0.914062 -0.273438 0.828125 -0.523438 0.828125 -0.828125 C 0.828125 -0.960938 0.851562 -1.097656 0.90625 -1.234375 C 0.96875 -1.367188 1.039062 -1.503906 1.125 -1.640625 C 1.40625 -2.097656 1.546875 -2.585938 1.546875 -3.109375 L 1.546875 -19.046875 C 1.546875 -19.523438 1.507812 -19.875 1.4375 -20.09375 C 1.363281 -20.3125 1.257812 -20.515625 1.125 -20.703125 C 1.019531 -20.859375 0.941406 -20.992188 0.890625 -21.109375 C 0.847656 -21.222656 0.828125 -21.375 0.828125 -21.5625 C 0.828125 -21.894531 0.921875 -22.144531 1.109375 -22.3125 C 1.304688 -22.488281 1.578125 -22.578125 1.921875 -22.578125 Z M 8.671875 -15.515625 L 8.671875 -7.03125 C 8.671875 -6.726562 8.742188 -6.523438 8.890625 -6.421875 C 9.046875 -6.316406 9.382812 -6.265625 9.90625 -6.265625 C 10.957031 -6.265625 11.664062 -6.703125 12.03125 -7.578125 C 12.394531 -8.460938 12.578125 -9.71875 12.578125 -11.34375 C 12.578125 -13.125 12.363281 -14.425781 11.9375 -15.25 C 11.519531 -16.070312 10.796875 -16.484375 9.765625 -16.484375 C 9.304688 -16.484375 9.007812 -16.421875 8.875 -16.296875 C 8.738281 -16.171875 8.671875 -15.910156 8.671875 -15.515625 Z M 8.671875 -15.515625 "/></g></g></g><g fill="#e60124" fill-opacity="1"><g transform="translate(129.959869, 33.622898)"><g><path d="M 1.921875 -22.578125 C 2.054688 -22.578125 2.351562 -22.554688 2.8125 -22.515625 C 4.15625 -22.421875 6.140625 -22.375 8.765625 -22.375 C 10.984375 -22.375 13.066406 -22.429688 15.015625 -22.546875 C 15.222656 -22.566406 15.445312 -22.578125 15.6875 -22.578125 C 16.039062 -22.578125 16.304688 -22.46875 16.484375 -22.25 C 16.660156 -22.039062 16.785156 -21.613281 16.859375 -20.96875 C 16.972656 -19.695312 17.144531 -18.707031 17.375 -18 C 17.445312 -17.65625 17.484375 -17.425781 17.484375 -17.3125 C 17.484375 -17.082031 17.382812 -16.890625 17.1875 -16.734375 C 16.988281 -16.585938 16.765625 -16.515625 16.515625 -16.515625 C 16.398438 -16.515625 16.257812 -16.535156 16.09375 -16.578125 C 15.9375 -16.628906 15.804688 -16.664062 15.703125 -16.6875 C 14.503906 -17.070312 13.109375 -17.265625 11.515625 -17.265625 L 9.625 -17.265625 C 9.257812 -17.265625 9.015625 -17.191406 8.890625 -17.046875 C 8.765625 -16.898438 8.703125 -16.664062 8.703125 -16.34375 L 8.703125 -14.8125 C 8.703125 -14.46875 8.785156 -14.25 8.953125 -14.15625 C 9.128906 -14.0625 9.445312 -14.015625 9.90625 -14.015625 L 12.171875 -14.015625 C 12.921875 -14.015625 13.585938 -14.101562 14.171875 -14.28125 C 14.753906 -14.46875 15.113281 -14.5625 15.25 -14.5625 C 15.550781 -14.5625 15.785156 -14.460938 15.953125 -14.265625 C 16.117188 -14.078125 16.203125 -13.847656 16.203125 -13.578125 C 16.203125 -13.390625 16.179688 -13.054688 16.140625 -12.578125 C 16.097656 -12.097656 16.078125 -11.734375 16.078125 -11.484375 L 16.203125 -9.484375 C 16.203125 -9.265625 16.109375 -9.054688 15.921875 -8.859375 C 15.742188 -8.660156 15.507812 -8.5625 15.21875 -8.5625 C 15.082031 -8.5625 14.820312 -8.617188 14.4375 -8.734375 C 14.0625 -8.847656 13.710938 -8.9375 13.390625 -9 C 13.078125 -9.070312 12.65625 -9.109375 12.125 -9.109375 L 9.703125 -9.109375 C 9.359375 -9.109375 9.101562 -9.050781 8.9375 -8.9375 C 8.78125 -8.820312 8.703125 -8.59375 8.703125 -8.25 L 8.703125 -6.640625 C 8.703125 -6.285156 8.769531 -6.054688 8.90625 -5.953125 C 9.039062 -5.847656 9.28125 -5.785156 9.625 -5.765625 C 10.3125 -5.734375 11.007812 -5.71875 11.71875 -5.71875 C 12.8125 -5.71875 13.707031 -5.78125 14.40625 -5.90625 C 15.101562 -6.039062 15.757812 -6.21875 16.375 -6.4375 C 16.65625 -6.550781 16.875 -6.609375 17.03125 -6.609375 C 17.300781 -6.609375 17.53125 -6.519531 17.71875 -6.34375 C 17.90625 -6.175781 18 -5.976562 18 -5.75 C 18 -5.5 17.90625 -5.085938 17.71875 -4.515625 C 17.601562 -4.109375 17.472656 -3.507812 17.328125 -2.71875 C 17.179688 -1.9375 17.109375 -1.441406 17.109375 -1.234375 C 17.097656 -0.753906 17.015625 -0.394531 16.859375 -0.15625 C 16.703125 0.0820312 16.414062 0.203125 16 0.203125 L 14.625 0.140625 C 12 0.046875 9.738281 0 7.84375 0 C 5.65625 0 4.144531 0.03125 3.3125 0.09375 C 2.476562 0.164062 1.992188 0.203125 1.859375 0.203125 C 1.535156 0.203125 1.28125 0.109375 1.09375 -0.078125 C 0.914062 -0.273438 0.828125 -0.535156 0.828125 -0.859375 C 0.828125 -1.015625 0.847656 -1.148438 0.890625 -1.265625 C 0.941406 -1.378906 1.023438 -1.519531 1.140625 -1.6875 C 1.265625 -1.863281 1.363281 -2.066406 1.4375 -2.296875 C 1.507812 -2.523438 1.546875 -2.851562 1.546875 -3.28125 L 1.546875 -19.15625 C 1.546875 -19.5625 1.507812 -19.867188 1.4375 -20.078125 C 1.363281 -20.285156 1.269531 -20.472656 1.15625 -20.640625 C 1.050781 -20.816406 0.96875 -20.972656 0.90625 -21.109375 C 0.851562 -21.242188 0.828125 -21.394531 0.828125 -21.5625 C 0.828125 -21.875 0.921875 -22.117188 1.109375 -22.296875 C 1.304688 -22.484375 1.578125 -22.578125 1.921875 -22.578125 Z M 1.921875 -22.578125 "/></g></g></g><g fill="#e60124" fill-opacity="1"><g transform="translate(149.692684, 33.622898)"><g><path d="M 1.921875 -22.578125 C 2.210938 -22.578125 2.476562 -22.566406 2.71875 -22.546875 C 2.957031 -22.523438 3.316406 -22.488281 3.796875 -22.4375 C 4.273438 -22.394531 4.742188 -22.375 5.203125 -22.375 C 5.734375 -22.375 6.195312 -22.378906 6.59375 -22.390625 C 7 -22.410156 7.570312 -22.445312 8.3125 -22.5 C 9.050781 -22.550781 9.742188 -22.578125 10.390625 -22.578125 C 13.492188 -22.578125 15.789062 -21.816406 17.28125 -20.296875 C 18.78125 -18.785156 19.53125 -16.679688 19.53125 -13.984375 C 19.53125 -12.285156 19.222656 -10.769531 18.609375 -9.4375 C 17.992188 -8.101562 17.0625 -7.050781 15.8125 -6.28125 C 14.570312 -5.519531 13.035156 -5.140625 11.203125 -5.140625 C 11.023438 -5.140625 10.46875 -5.171875 9.53125 -5.234375 C 9.320312 -5.234375 9.164062 -5.179688 9.0625 -5.078125 C 8.957031 -4.984375 8.90625 -4.785156 8.90625 -4.484375 L 8.90625 -3.15625 C 8.90625 -2.8125 8.941406 -2.53125 9.015625 -2.3125 C 9.085938 -2.09375 9.191406 -1.867188 9.328125 -1.640625 C 9.347656 -1.597656 9.398438 -1.5 9.484375 -1.34375 C 9.578125 -1.195312 9.625 -1.023438 9.625 -0.828125 C 9.625 -0.523438 9.53125 -0.273438 9.34375 -0.078125 C 9.164062 0.109375 8.921875 0.203125 8.609375 0.203125 C 8.515625 0.203125 8.15625 0.164062 7.53125 0.09375 C 6.914062 0.03125 6.207031 0 5.40625 0 C 4.65625 0 3.472656 0.0664062 1.859375 0.203125 C 1.515625 0.203125 1.253906 0.109375 1.078125 -0.078125 C 0.910156 -0.273438 0.828125 -0.523438 0.828125 -0.828125 C 0.828125 -1.023438 0.847656 -1.175781 0.890625 -1.28125 C 0.941406 -1.382812 1.019531 -1.503906 1.125 -1.640625 C 1.257812 -1.828125 1.363281 -2.035156 1.4375 -2.265625 C 1.507812 -2.492188 1.546875 -2.847656 1.546875 -3.328125 L 1.546875 -18.984375 C 1.546875 -19.484375 1.507812 -19.847656 1.4375 -20.078125 C 1.363281 -20.304688 1.25 -20.535156 1.09375 -20.765625 C 1 -20.898438 0.929688 -21.019531 0.890625 -21.125 C 0.847656 -21.226562 0.828125 -21.363281 0.828125 -21.53125 C 0.828125 -21.863281 0.929688 -22.117188 1.140625 -22.296875 C 1.359375 -22.484375 1.617188 -22.578125 1.921875 -22.578125 Z M 8.59375 -16.109375 L 8.59375 -11.609375 C 8.59375 -11.316406 8.664062 -11.113281 8.8125 -11 C 8.96875 -10.882812 9.253906 -10.828125 9.671875 -10.828125 C 10.460938 -10.828125 11.109375 -11.082031 11.609375 -11.59375 C 12.117188 -12.113281 12.375 -12.875 12.375 -13.875 C 12.375 -14.84375 12.15625 -15.585938 11.71875 -16.109375 C 11.28125 -16.628906 10.609375 -16.890625 9.703125 -16.890625 C 9.242188 -16.890625 8.941406 -16.835938 8.796875 -16.734375 C 8.660156 -16.640625 8.59375 -16.429688 8.59375 -16.109375 Z M 8.59375 -16.109375 "/></g></g></g><g fill="#e60124" fill-opacity="1"><g transform="translate(170.861626, 33.622898)"><g><path d="M 10.375 -22.953125 C 12.457031 -22.953125 14.242188 -22.421875 15.734375 -21.359375 C 17.234375 -20.296875 18.367188 -18.875 19.140625 -17.09375 C 19.910156 -15.3125 20.296875 -13.375 20.296875 -11.28125 C 20.296875 -9.019531 19.9375 -7 19.21875 -5.21875 C 18.507812 -3.445312 17.410156 -2.039062 15.921875 -1 C 14.441406 0.03125 12.597656 0.546875 10.390625 0.546875 C 8.191406 0.546875 6.351562 0.0390625 4.875 -0.96875 C 3.40625 -1.988281 2.316406 -3.367188 1.609375 -5.109375 C 0.898438 -6.847656 0.546875 -8.820312 0.546875 -11.03125 C 0.546875 -13.59375 0.972656 -15.769531 1.828125 -17.5625 C 2.691406 -19.351562 3.863281 -20.695312 5.34375 -21.59375 C 6.832031 -22.5 8.507812 -22.953125 10.375 -22.953125 Z M 8.359375 -11.3125 C 8.359375 -9.414062 8.484375 -8.015625 8.734375 -7.109375 C 8.992188 -6.203125 9.554688 -5.75 10.421875 -5.75 C 11.242188 -5.75 11.796875 -6.210938 12.078125 -7.140625 C 12.359375 -8.066406 12.5 -9.4375 12.5 -11.25 C 12.5 -13.226562 12.347656 -14.640625 12.046875 -15.484375 C 11.753906 -16.335938 11.203125 -16.765625 10.390625 -16.765625 C 9.566406 -16.765625 9.019531 -16.316406 8.75 -15.421875 C 8.488281 -14.523438 8.359375 -13.15625 8.359375 -11.3125 Z M 11.125 -28.171875 C 11.238281 -28.171875 11.460938 -28.148438 11.796875 -28.109375 C 12.128906 -28.078125 12.410156 -28.0625 12.640625 -28.0625 L 14.3125 -28.140625 C 14.539062 -28.140625 14.71875 -28.054688 14.84375 -27.890625 C 14.976562 -27.734375 15.046875 -27.5625 15.046875 -27.375 C 15.046875 -27.125 14.9375 -26.867188 14.71875 -26.609375 C 14.5 -26.347656 13.988281 -25.828125 13.1875 -25.046875 C 12.78125 -24.660156 12.507812 -24.421875 12.375 -24.328125 C 12.25 -24.234375 12.109375 -24.1875 11.953125 -24.1875 C 11.046875 -24.21875 10.472656 -24.234375 10.234375 -24.234375 C 9.503906 -24.203125 9.015625 -24.1875 8.765625 -24.1875 C 8.453125 -24.1875 8.296875 -24.289062 8.296875 -24.5 C 8.296875 -24.59375 8.410156 -24.800781 8.640625 -25.125 L 10.171875 -27.34375 C 10.441406 -27.726562 10.628906 -27.960938 10.734375 -28.046875 C 10.835938 -28.128906 10.96875 -28.171875 11.125 -28.171875 Z M 11.125 -28.171875 "/></g></g></g><g fill="#e60124" fill-opacity="1"><g transform="translate(193.150757, 33.622898)"><g><path d="M 8.765625 -22.921875 C 9.835938 -22.921875 11.109375 -22.75 12.578125 -22.40625 C 12.992188 -22.300781 13.253906 -22.25 13.359375 -22.25 C 13.472656 -22.25 13.628906 -22.296875 13.828125 -22.390625 C 14.023438 -22.492188 14.234375 -22.546875 14.453125 -22.546875 C 14.804688 -22.546875 15.09375 -22.441406 15.3125 -22.234375 C 15.539062 -22.035156 15.65625 -21.773438 15.65625 -21.453125 L 15.625 -19.953125 C 15.625 -19.515625 15.691406 -19.015625 15.828125 -18.453125 C 15.960938 -17.890625 16.0625 -17.445312 16.125 -17.125 C 16.1875 -16.8125 16.21875 -16.632812 16.21875 -16.59375 C 16.21875 -16.40625 16.128906 -16.210938 15.953125 -16.015625 C 15.785156 -15.828125 15.570312 -15.734375 15.3125 -15.734375 C 15.113281 -15.734375 14.671875 -15.890625 13.984375 -16.203125 C 13.234375 -16.503906 12.59375 -16.734375 12.0625 -16.890625 C 11.539062 -17.054688 10.992188 -17.140625 10.421875 -17.140625 C 9.921875 -17.140625 9.515625 -17.019531 9.203125 -16.78125 C 8.890625 -16.539062 8.734375 -16.191406 8.734375 -15.734375 C 8.734375 -15.296875 8.890625 -14.945312 9.203125 -14.6875 C 9.515625 -14.425781 10.078125 -14.179688 10.890625 -13.953125 C 12.191406 -13.585938 13.289062 -13.148438 14.1875 -12.640625 C 15.082031 -12.140625 15.796875 -11.425781 16.328125 -10.5 C 16.867188 -9.570312 17.140625 -8.378906 17.140625 -6.921875 C 17.140625 -5.296875 16.769531 -3.921875 16.03125 -2.796875 C 15.300781 -1.679688 14.3125 -0.84375 13.0625 -0.28125 C 11.820312 0.269531 10.425781 0.546875 8.875 0.546875 C 7.59375 0.546875 5.972656 0.316406 4.015625 -0.140625 C 3.671875 -0.234375 3.472656 -0.28125 3.421875 -0.28125 C 3.285156 -0.28125 3.09375 -0.210938 2.84375 -0.078125 C 2.59375 0.046875 2.351562 0.109375 2.125 0.109375 C 1.601562 0.109375 1.273438 -0.0234375 1.140625 -0.296875 C 1.015625 -0.578125 0.953125 -0.992188 0.953125 -1.546875 C 0.953125 -2.335938 0.90625 -3 0.8125 -3.53125 C 0.726562 -4.070312 0.617188 -4.628906 0.484375 -5.203125 C 0.347656 -5.734375 0.28125 -6.113281 0.28125 -6.34375 C 0.28125 -6.570312 0.367188 -6.78125 0.546875 -6.96875 C 0.734375 -7.164062 0.953125 -7.265625 1.203125 -7.265625 C 1.378906 -7.265625 1.566406 -7.21875 1.765625 -7.125 C 1.960938 -7.039062 2.1875 -6.9375 2.4375 -6.8125 C 2.59375 -6.726562 2.96875 -6.53125 3.5625 -6.21875 C 4.15625 -5.914062 4.75 -5.675781 5.34375 -5.5 C 5.9375 -5.332031 6.5 -5.25 7.03125 -5.25 C 7.507812 -5.25 7.890625 -5.367188 8.171875 -5.609375 C 8.460938 -5.847656 8.609375 -6.195312 8.609375 -6.65625 C 8.609375 -7.15625 8.441406 -7.519531 8.109375 -7.75 C 7.773438 -7.976562 7.09375 -8.257812 6.0625 -8.59375 C 4.207031 -9.1875 2.835938 -9.976562 1.953125 -10.96875 C 1.066406 -11.96875 0.625 -13.394531 0.625 -15.25 C 0.625 -16.914062 0.984375 -18.328125 1.703125 -19.484375 C 2.421875 -20.640625 3.394531 -21.5 4.625 -22.0625 C 5.851562 -22.632812 7.234375 -22.921875 8.765625 -22.921875 Z M 8.765625 -22.921875 "/></g></g></g><g fill="#e60124" fill-opacity="1"><g transform="translate(211.964442, 33.622898)"><g><path d="M 1.921875 -22.578125 C 2.304688 -22.578125 2.757812 -22.539062 3.28125 -22.46875 C 3.8125 -22.40625 4.460938 -22.375 5.234375 -22.375 C 5.972656 -22.375 7.175781 -22.441406 8.84375 -22.578125 C 9.15625 -22.578125 9.394531 -22.484375 9.5625 -22.296875 C 9.738281 -22.117188 9.828125 -21.875 9.828125 -21.5625 C 9.828125 -21.375 9.789062 -21.21875 9.71875 -21.09375 C 9.65625 -20.96875 9.613281 -20.882812 9.59375 -20.84375 C 9.457031 -20.632812 9.34375 -20.375 9.25 -20.0625 C 9.164062 -19.757812 9.125 -19.304688 9.125 -18.703125 L 9.125 -3.109375 C 9.125 -2.742188 9.15625 -2.457031 9.21875 -2.25 C 9.289062 -2.050781 9.394531 -1.847656 9.53125 -1.640625 C 9.550781 -1.617188 9.601562 -1.535156 9.6875 -1.390625 C 9.78125 -1.242188 9.828125 -1.054688 9.828125 -0.828125 C 9.828125 -0.566406 9.742188 -0.328125 9.578125 -0.109375 C 9.410156 0.0976562 9.164062 0.203125 8.84375 0.203125 C 7.40625 0.0664062 6.257812 0 5.40625 0 C 4.707031 0 3.519531 0.0664062 1.84375 0.203125 C 1.53125 0.203125 1.28125 0.109375 1.09375 -0.078125 C 0.914062 -0.273438 0.828125 -0.535156 0.828125 -0.859375 C 0.828125 -1.085938 0.914062 -1.335938 1.09375 -1.609375 C 1.25 -1.835938 1.363281 -2.0625 1.4375 -2.28125 C 1.507812 -2.5 1.546875 -2.800781 1.546875 -3.1875 L 1.546875 -19.15625 C 1.546875 -19.59375 1.507812 -19.914062 1.4375 -20.125 C 1.363281 -20.34375 1.257812 -20.546875 1.125 -20.734375 C 1.101562 -20.753906 1.046875 -20.832031 0.953125 -20.96875 C 0.867188 -21.113281 0.828125 -21.3125 0.828125 -21.5625 C 0.828125 -21.894531 0.929688 -22.144531 1.140625 -22.3125 C 1.359375 -22.488281 1.617188 -22.578125 1.921875 -22.578125 Z M 1.921875 -22.578125 "/></g></g></g><g fill="#e60124" fill-opacity="1"><g transform="translate(224.057012, 33.622898)"><g><path d="M 1.84375 -22.578125 C 2.050781 -22.578125 2.5 -22.554688 3.1875 -22.515625 C 4.78125 -22.421875 6.515625 -22.375 8.390625 -22.375 C 9.347656 -22.375 10.78125 -22.421875 12.6875 -22.515625 L 14.359375 -22.578125 C 14.722656 -22.578125 14.992188 -22.523438 15.171875 -22.421875 C 15.359375 -22.328125 15.5 -22.132812 15.59375 -21.84375 C 15.6875 -21.5625 15.734375 -21.125 15.734375 -20.53125 C 15.753906 -19.820312 15.800781 -19.207031 15.875 -18.6875 C 15.957031 -18.175781 16.066406 -17.625 16.203125 -17.03125 C 16.296875 -16.550781 16.34375 -16.234375 16.34375 -16.078125 C 16.34375 -15.828125 16.253906 -15.609375 16.078125 -15.421875 C 15.910156 -15.242188 15.671875 -15.15625 15.359375 -15.15625 C 15.128906 -15.15625 14.828125 -15.265625 14.453125 -15.484375 C 14.160156 -15.628906 13.882812 -15.742188 13.625 -15.828125 C 13.363281 -15.921875 13.070312 -15.96875 12.75 -15.96875 C 12.425781 -15.96875 12.203125 -15.910156 12.078125 -15.796875 C 11.953125 -15.679688 11.890625 -15.46875 11.890625 -15.15625 L 11.890625 -3.28125 C 11.890625 -2.800781 11.925781 -2.441406 12 -2.203125 C 12.082031 -1.972656 12.191406 -1.765625 12.328125 -1.578125 C 12.421875 -1.441406 12.484375 -1.320312 12.515625 -1.21875 C 12.554688 -1.113281 12.578125 -0.972656 12.578125 -0.796875 C 12.578125 -0.492188 12.484375 -0.25 12.296875 -0.0625 C 12.117188 0.113281 11.890625 0.203125 11.609375 0.203125 C 11.492188 0.203125 11.148438 0.164062 10.578125 0.09375 C 10.015625 0.03125 9.226562 0 8.21875 0 C 7.289062 0 6.082031 0.0664062 4.59375 0.203125 C 4.289062 0.203125 4.046875 0.109375 3.859375 -0.078125 C 3.679688 -0.273438 3.59375 -0.535156 3.59375 -0.859375 C 3.59375 -1.066406 3.675781 -1.296875 3.84375 -1.546875 C 3.976562 -1.773438 4.085938 -2.015625 4.171875 -2.265625 C 4.265625 -2.515625 4.3125 -2.867188 4.3125 -3.328125 L 4.3125 -15.078125 C 4.3125 -15.441406 4.242188 -15.691406 4.109375 -15.828125 C 3.972656 -15.972656 3.710938 -16.046875 3.328125 -16.046875 C 2.984375 -16.046875 2.707031 -16.003906 2.5 -15.921875 C 2.289062 -15.835938 2.050781 -15.71875 1.78125 -15.5625 C 1.738281 -15.539062 1.628906 -15.476562 1.453125 -15.375 C 1.285156 -15.269531 1.097656 -15.21875 0.890625 -15.21875 C 0.566406 -15.21875 0.300781 -15.3125 0.09375 -15.5 C -0.101562 -15.695312 -0.203125 -15.898438 -0.203125 -16.109375 C -0.203125 -16.285156 -0.132812 -16.660156 0 -17.234375 C 0.34375 -18.453125 0.546875 -19.710938 0.609375 -21.015625 C 0.640625 -21.609375 0.734375 -22.015625 0.890625 -22.234375 C 1.046875 -22.460938 1.363281 -22.578125 1.84375 -22.578125 Z M 1.84375 -22.578125 "/></g></g></g><g fill="#e60124" fill-opacity="1"><g transform="translate(241.549454, 33.622898)"><g><path d="M 10.375 -22.953125 C 12.457031 -22.953125 14.242188 -22.421875 15.734375 -21.359375 C 17.234375 -20.296875 18.367188 -18.875 19.140625 -17.09375 C 19.910156 -15.3125 20.296875 -13.375 20.296875 -11.28125 C 20.296875 -9.019531 19.9375 -7 19.21875 -5.21875 C 18.507812 -3.445312 17.410156 -2.039062 15.921875 -1 C 14.441406 0.03125 12.597656 0.546875 10.390625 0.546875 C 8.191406 0.546875 6.351562 0.0390625 4.875 -0.96875 C 3.40625 -1.988281 2.316406 -3.367188 1.609375 -5.109375 C 0.898438 -6.847656 0.546875 -8.820312 0.546875 -11.03125 C 0.546875 -13.59375 0.972656 -15.769531 1.828125 -17.5625 C 2.691406 -19.351562 3.863281 -20.695312 5.34375 -21.59375 C 6.832031 -22.5 8.507812 -22.953125 10.375 -22.953125 Z M 8.359375 -11.3125 C 8.359375 -9.414062 8.484375 -8.015625 8.734375 -7.109375 C 8.992188 -6.203125 9.554688 -5.75 10.421875 -5.75 C 11.242188 -5.75 11.796875 -6.210938 12.078125 -7.140625 C 12.359375 -8.066406 12.5 -9.4375 12.5 -11.25 C 12.5 -13.226562 12.347656 -14.640625 12.046875 -15.484375 C 11.753906 -16.335938 11.203125 -16.765625 10.390625 -16.765625 C 9.566406 -16.765625 9.019531 -16.316406 8.75 -15.421875 C 8.488281 -14.523438 8.359375 -13.15625 8.359375 -11.3125 Z M 8.359375 -11.3125 "/></g></g></g></svg>