<svg xmlns="http://www.w3.org/2000/svg" xmlns:xlink="http://www.w3.org/1999/xlink" width="500" zoomAndPan="magnify" viewBox="0 0 375 374.999991" height="500" preserveAspectRatio="xMidYMid meet" version="1.0"><defs><clipPath id="1f33aa2061"><path d="M 20 28 L 355 28 L 355 347.695312 L 20 347.695312 Z M 20 28 " clip-rule="nonzero"/></clipPath><clipPath id="028868abb1"><path d="M 95 145.457031 L 282 145.457031 L 282 329 L 95 329 Z M 95 145.457031 " clip-rule="nonzero"/></clipPath></defs><g clip-path="url(#1f33aa2061)"><path fill="#e60124" d="M 66.019531 186.953125 L 66.019531 302.140625 C 66.019531 327.300781 86.414062 347.695312 111.574219 347.695312 L 263.417969 347.695312 C 288.578125 347.695312 308.972656 327.300781 308.972656 302.140625 L 308.972656 186.953125 L 328.605469 206.585938 C 334.527344 212.507812 344.152344 212.507812 350.074219 206.585938 C 355.996094 200.664062 355.996094 191.039062 350.074219 185.117188 L 198.230469 33.273438 C 192.308594 27.335938 182.683594 27.335938 176.761719 33.273438 L 24.917969 185.117188 C 18.996094 191.039062 18.996094 200.664062 24.917969 206.585938 C 30.839844 212.507812 40.464844 212.507812 46.386719 206.585938 Z M 66.019531 186.953125 " fill-opacity="1" fill-rule="evenodd"/></g><path stroke-linecap="round" transform="matrix(0, -2.669922, 2.669922, 0, 86.781906, 145.444634)" fill="none" stroke-linejoin="miter" d="M 7.000478 7.000487 L 28.789801 7.000487 " stroke="#e60124" stroke-width="14" stroke-opacity="1" stroke-miterlimit="4"/><g clip-path="url(#028868abb1)"><path fill="#fff972" d="M 236.773438 210.613281 C 236.160156 210 235.367188 209.695312 234.558594 209.695312 C 233.765625 209.695312 232.972656 210 232.359375 210.613281 L 225.726562 217.234375 L 203.609375 195.117188 L 209.023438 189.707031 C 212.613281 186.113281 214.214844 181.164062 213.398438 176.144531 C 212.589844 171.121094 209.511719 166.929688 204.953125 164.65625 L 180.125 152.242188 L 180.296875 152.070312 L 224.664062 160.941406 C 230.125 162.042969 235.109375 164.707031 239.042969 168.652344 L 256.6875 186.285156 L 250.042969 192.917969 C 249.457031 193.507812 249.136719 194.300781 249.136719 195.132812 C 249.136719 195.949219 249.457031 196.757812 250.042969 197.34375 L 256.675781 203.976562 C 257.421875 204.710938 258.484375 205.039062 259.511719 204.832031 L 267.28125 203.28125 C 268.320312 203.0625 269.371094 203.390625 270.117188 204.125 L 274.382812 208.402344 L 247.84375 234.941406 L 243.566406 230.675781 C 242.820312 229.929688 242.503906 228.878906 242.710938 227.855469 L 244.273438 220.070312 C 244.46875 219.042969 244.152344 217.980469 243.40625 217.246094 Z M 120.679688 313.4375 C 117.035156 317.089844 111.074219 317.089844 107.40625 313.449219 C 103.753906 309.769531 103.753906 303.808594 107.40625 300.167969 L 203.597656 203.964844 L 216.878906 217.246094 Z M 240.277344 272.441406 C 247.964844 271.539062 255.503906 274.140625 260.976562 279.578125 C 267.367188 285.980469 269.738281 295.242188 267.441406 303.746094 L 253.648438 289.953125 C 253.058594 289.367188 252.265625 289.035156 251.421875 289.035156 L 238.164062 289.035156 C 236.441406 289.035156 235.035156 290.441406 235.035156 292.164062 L 235.035156 305.421875 C 235.035156 306.253906 235.367188 307.058594 235.953125 307.644531 L 249.75 321.441406 C 241.242188 323.726562 231.980469 321.367188 225.578125 314.976562 C 220.140625 309.515625 217.539062 301.964844 218.441406 294.289062 C 219.03125 289.402344 217.40625 284.648438 214.007812 281.289062 L 187.847656 255.128906 L 201.128906 241.84375 L 227.277344 267.992188 C 230.648438 271.414062 235.414062 273.027344 240.277344 272.441406 Z M 131.675781 205.417969 C 131.015625 205.417969 130.355469 205.457031 129.695312 205.53125 C 121.996094 206.433594 114.457031 203.832031 108.996094 198.394531 C 102.605469 191.992188 100.234375 182.730469 102.53125 174.222656 L 116.328125 188.019531 C 116.914062 188.605469 117.722656 188.9375 118.550781 188.9375 L 131.808594 188.9375 C 133.53125 188.9375 134.9375 187.53125 134.9375 185.808594 L 134.9375 172.550781 C 134.9375 171.71875 134.609375 170.914062 134.019531 170.328125 L 120.226562 156.53125 C 128.730469 154.234375 137.992188 156.59375 144.382812 162.996094 C 149.832031 168.457031 152.433594 176.007812 151.542969 183.683594 C 150.945312 188.570312 152.558594 193.324219 155.964844 196.683594 L 179 219.714844 L 165.71875 233 L 142.695312 209.976562 C 139.777344 207.019531 135.839844 205.417969 131.675781 205.417969 Z M 239.140625 235.101562 L 245.628906 241.578125 C 246.242188 242.1875 247.035156 242.492188 247.84375 242.492188 C 248.636719 242.492188 249.429688 242.1875 250.042969 241.578125 L 281.015625 210.613281 C 282.238281 209.390625 282.238281 207.410156 281.015625 206.191406 L 274.542969 199.714844 C 272.316406 197.476562 269.152344 196.523438 266.0625 197.136719 L 259.925781 198.371094 L 256.675781 195.132812 L 263.324219 188.496094 C 263.910156 187.910156 264.242188 187.101562 264.242188 186.285156 C 264.242188 185.453125 263.910156 184.660156 263.324219 184.074219 L 243.480469 164.214844 C 238.652344 159.402344 232.570312 156.152344 225.898438 154.808594 L 179.878906 145.605469 C 178.851562 145.398438 177.789062 145.730469 177.058594 146.460938 L 172.632812 150.886719 C 171.925781 151.59375 171.59375 152.609375 171.753906 153.597656 C 171.914062 154.601562 172.546875 155.445312 173.441406 155.894531 L 202.15625 170.253906 C 204.878906 171.621094 206.738281 174.140625 207.226562 177.144531 C 207.714844 180.164062 206.761719 183.132812 204.597656 185.28125 L 196.960938 192.917969 C 196.375 193.507812 196.046875 194.300781 196.046875 195.132812 C 196.046875 195.949219 196.375 196.757812 196.960938 197.34375 L 199.171875 199.542969 L 183.421875 215.292969 L 160.378906 192.246094 C 158.347656 190.242188 157.382812 187.398438 157.75 184.414062 C 158.875 174.824219 155.613281 165.402344 148.820312 158.570312 C 139.445312 149.199219 125.136719 146.753906 113.222656 152.488281 C 112.308594 152.925781 111.660156 153.78125 111.488281 154.785156 C 111.316406 155.785156 111.648438 156.800781 112.355469 157.519531 L 128.679688 173.832031 L 128.679688 182.679688 L 119.835938 182.679688 L 103.523438 166.355469 C 102.800781 165.644531 101.785156 165.328125 100.785156 165.488281 C 99.78125 165.660156 98.925781 166.304688 98.488281 167.222656 C 92.757812 179.136719 95.199219 193.445312 104.574219 202.816406 C 111.414062 209.609375 120.824219 212.875 130.441406 211.75 C 133.398438 211.382812 136.246094 212.347656 138.261719 214.386719 L 161.292969 237.421875 L 102.972656 295.742188 C 96.898438 301.816406 96.886719 311.75 102.984375 317.871094 C 106.039062 320.914062 110.046875 322.429688 114.054688 322.429688 C 118.0625 322.429688 122.070312 320.902344 125.101562 317.871094 L 183.421875 259.550781 L 209.597656 285.722656 C 211.625 287.726562 212.589844 290.574219 212.222656 293.554688 C 211.097656 303.148438 214.351562 312.558594 221.15625 319.398438 C 227.144531 325.386719 235.160156 328.550781 243.273438 328.550781 C 247.84375 328.550781 252.460938 327.550781 256.761719 325.484375 C 257.667969 325.046875 258.3125 324.191406 258.484375 323.1875 C 258.65625 322.1875 258.328125 321.171875 257.617188 320.449219 L 241.292969 304.136719 L 241.292969 295.292969 L 250.140625 295.292969 L 266.453125 311.617188 C 267.171875 312.324219 268.199219 312.644531 269.1875 312.484375 C 270.191406 312.3125 271.046875 311.664062 271.488281 310.75 C 277.21875 298.835938 274.773438 284.527344 265.402344 275.15625 C 258.570312 268.359375 249.148438 265.097656 239.535156 266.222656 C 236.578125 266.589844 233.742188 265.625 231.714844 263.582031 L 205.550781 237.421875 L 221.300781 221.671875 L 223.5 223.882812 C 224.722656 225.105469 226.703125 225.105469 227.925781 223.882812 L 234.558594 217.246094 L 237.808594 220.484375 L 236.578125 226.621094 C 235.953125 229.699219 236.917969 232.875 239.140625 235.101562 " fill-opacity="1" fill-rule="nonzero"/></g></svg>